<svg xmlns="http://www.w3.org/2000/svg" viewBox="0 0 512 512">
  <rect width="512" height="512" rx="100" fill="#0A0F1E"/>
  <rect x="36" y="36" width="440" height="440" rx="72" fill="#141B2D"/>
  <polyline points="64,396 150,288 214,342 322,192 402,240 448,160"
    stroke="#00D4AA" stroke-width="18" fill="none"
    stroke-linecap="round" stroke-linejoin="round"/>
  <circle cx="448" cy="160" r="24" fill="#FFD700"/>
  <line x1="64" y1="428" x2="448" y2="428" stroke="#2A3550" stroke-width="4"/>
  <rect x="80" y="344" width="28" height="84" rx="5" fill="#00D4AA" opacity="0.4"/>
  <rect x="132" y="316" width="28" height="112" rx="5" fill="#00D4AA" opacity="0.5"/>
  <rect x="184" y="330" width="28" height="98" rx="5" fill="#00D4AA" opacity="0.5"/>
  <rect x="236" y="266" width="28" height="162" rx="5" fill="#00D4AA" opacity="0.7"/>
  <rect x="288" y="234" width="28" height="194" rx="5" fill="#00D4AA" opacity="0.8"/>
  <rect x="340" y="200" width="28" height="228" rx="5" fill="#FFD700" opacity="0.8"/>
  <rect x="392" y="172" width="28" height="256" rx="5" fill="#FFD700"/>
</svg>
