<svg xmlns="http://www.w3.org/2000/svg" viewBox="0 0 192 192">
  <rect width="192" height="192" rx="38" fill="#0A0F1E"/>
  <rect x="14" y="14" width="164" height="164" rx="28" fill="#141B2D"/>
  <polyline points="24,148 56,108 80,128 120,72 150,90 168,60"
    stroke="#00D4AA" stroke-width="7" fill="none"
    stroke-linecap="round" stroke-linejoin="round"/>
  <circle cx="168" cy="60" r="9" fill="#FFD700"/>
  <line x1="24" y1="160" x2="168" y2="160" stroke="#2A3550" stroke-width="2"/>
  <rect x="32" y="130" width="10" height="30" rx="2" fill="#00D4AA" opacity="0.4"/>
  <rect x="50" y="118" width="10" height="42" rx="2" fill="#00D4AA" opacity="0.4"/>
  <rect x="68" y="125" width="10" height="35" rx="2" fill="#00D4AA" opacity="0.4"/>
  <rect x="86" y="100" width="10" height="60" rx="2" fill="#00D4AA" opacity="0.6"/>
  <rect x="104" y="88" width="10" height="72" rx="2" fill="#00D4AA" opacity="0.8"/>
  <rect x="122" y="76" width="10" height="84" rx="2" fill="#FFD700" opacity="0.8"/>
  <rect x="140" y="64" width="10" height="96" rx="2" fill="#FFD700"/>
</svg>
